<?xml version="1.0" encoding="UTF-8" standalone="no"?>
<svg version="1.1" viewBox="0 0 256 256" xmlns:xlink="http://www.w3.org/1999/xlink" xmlns="http://www.w3.org/2000/svg">
<rect width="256" height="256" fill="white"/>
<defs>
  <radialGradient id="rg1" cx="113.9" cy="18.3" r="4.5" gradientUnits="userSpaceOnUse" gradientTransform="translate(-47.5,147.6)"><stop stop-color="#5fbac3" stop-opacity="1" offset="0"/><stop stop-color="#1b5e73" stop-opacity="0" offset="1"/></radialGradient>
  <radialGradient id="rg2" cx="113.9" cy="18.3" r="4.5" gradientUnits="userSpaceOnUse" gradientTransform="translate(-54.6,137.1)"><stop stop-color="#5fbac3" stop-opacity="1" offset="0"/><stop stop-color="#1b5e73" stop-opacity="0" offset="1"/></radialGradient>
  <radialGradient id="rg3" cx="113.9" cy="18.3" r="4.5" gradientUnits="userSpaceOnUse" gradientTransform="translate(-71.2,109.5)"><stop stop-color="#5fbac3" stop-opacity="1" offset="0"/><stop stop-color="#1b5e73" stop-opacity="0" offset="1"/></radialGradient>
  <radialGradient id="rg4" cx="113.9" cy="18.3" r="4.5" gradientUnits="userSpaceOnUse" gradientTransform="translate(-73.6,95.3)"><stop stop-color="#5fbac3" stop-opacity="1" offset="0"/><stop stop-color="#1b5e73" stop-opacity="0" offset="1"/></radialGradient>
  <radialGradient id="rg5" cx="113.9" cy="18.3" r="4.5" gradientUnits="userSpaceOnUse" gradientTransform="translate(-74.8,67.7)"><stop stop-color="#5fbac3" stop-opacity="1" offset="0"/><stop stop-color="#1b5e73" stop-opacity="0" offset="1"/></radialGradient>
  <radialGradient id="rg6" cx="113.9" cy="18.3" r="4.5" gradientUnits="userSpaceOnUse" gradientTransform="translate(-71.9,54.8)"><stop stop-color="#5fbac3" stop-opacity="1" offset="0"/><stop stop-color="#1b5e73" stop-opacity="0" offset="1"/></radialGradient>
  <radialGradient id="rg7" cx="113.9" cy="18.3" r="4.5" gradientUnits="userSpaceOnUse" gradientTransform="translate(-54,28.4)"><stop stop-color="#5fbac3" stop-opacity="1" offset="0"/><stop stop-color="#1b5e73" stop-opacity="0" offset="1"/></radialGradient>
  <radialGradient id="rg8" cx="113.9" cy="18.3" r="4.5" gradientUnits="userSpaceOnUse" gradientTransform="translate(-38.8,14.2)"><stop stop-color="#5fbac3" stop-opacity="1" offset="0"/><stop stop-color="#1b5e73" stop-opacity="0" offset="1"/></radialGradient>
  <radialGradient id="rg9" cx="113.9" cy="18.3" r="4.5" gradientUnits="userSpaceOnUse" gradientTransform="translate(-20.7,5.7)"><stop stop-color="#5fbac3" stop-opacity="1" offset="0"/><stop stop-color="#1b5e73" stop-opacity="0" offset="1"/></radialGradient>
  <radialGradient id="rg17" cx="113.9" cy="18.3" r="4.5" gradientUnits="userSpaceOnUse" gradientTransform="translate(-0.2,1.3)"><stop stop-color="#5fbac3" stop-opacity="1" offset="0"/><stop stop-color="#1b5e73" stop-opacity="0" offset="1"/></radialGradient>
  <radialGradient id="rg10" cx="113.9" cy="18.3" r="4.5" gradientUnits="userSpaceOnUse" gradientTransform="translate(-38.5,27.4)"><stop stop-color="#11394b" stop-opacity="1" offset="0"/><stop stop-color="#1b5e73" stop-opacity="0" offset="1"/></radialGradient>
  <radialGradient id="rg11" cx="113.9" cy="18.3" r="4.5" gradientUnits="userSpaceOnUse" gradientTransform="translate(-25.8,151.5)"><stop stop-color="#11394b" stop-opacity="1" offset="0"/><stop stop-color="#1b5e73" stop-opacity="0" offset="1"/></radialGradient>
  <radialGradient id="rg21" cx="113.9" cy="18.3" r="4.5" gradientUnits="userSpaceOnUse" gradientTransform="translate(-25.8,165.3)"><stop stop-color="#5fbac3" stop-opacity="1" offset="0"/><stop stop-color="#1b5e73" stop-opacity="0" offset="1"/></radialGradient>
  <radialGradient id="rg12" cx="113.9" cy="18.3" r="4.5" gradientUnits="userSpaceOnUse" gradientTransform="translate(-39.6,114.5)"><stop stop-color="#11394b" stop-opacity="1" offset="0"/><stop stop-color="#1b5e73" stop-opacity="0" offset="1"/></radialGradient>
  <radialGradient id="rg19" cx="113.9" cy="18.3" r="4.5" gradientUnits="userSpaceOnUse" gradientTransform="translate(-41.7,138.5)"><stop stop-color="#11394b" stop-opacity="1" offset="0"/><stop stop-color="#1b5e73" stop-opacity="0" offset="1"/></radialGradient>
  <radialGradient id="rg13" cx="113.9" cy="18.3" r="4.5" gradientUnits="userSpaceOnUse" gradientTransform="translate(-61.2,100.7)"><stop stop-color="#11394b" stop-opacity="1" offset="0"/><stop stop-color="#1b5e73" stop-opacity="0" offset="1"/></radialGradient>
  <radialGradient id="rg14" cx="113.9" cy="18.3" r="4.5" gradientUnits="userSpaceOnUse" gradientTransform="translate(-29.7,42.2)"><stop stop-color="#11394b" stop-opacity="1" offset="0"/><stop stop-color="#1b5e73" stop-opacity="0" offset="1"/></radialGradient>
  <radialGradient id="rg15" cx="113.9" cy="18.3" r="4.5" gradientUnits="userSpaceOnUse" gradientTransform="translate(-45.4,43.5)"><stop stop-color="#11394b" stop-opacity="1" offset="0"/><stop stop-color="#1b5e73" stop-opacity="0" offset="1"/></radialGradient>
  <radialGradient id="rg18" cx="113.9" cy="18.3" r="4.5" gradientUnits="userSpaceOnUse" gradientTransform="translate(-45.5,72.4)"><stop stop-color="#11394b" stop-opacity="1" offset="0"/><stop stop-color="#1b5e73" stop-opacity="0" offset="1"/></radialGradient>
  <radialGradient id="rg16" cx="113.9" cy="18.3" r="4.5" gradientUnits="userSpaceOnUse" gradientTransform="matrix(1.11,0,0,1.03,-12.8,26.1)"><stop stop-color="#11394b" stop-opacity="1" offset="0"/><stop stop-color="#1b5e73" stop-opacity="0" offset="1"/></radialGradient>
  <radialGradient id="rg20" cx="113.9" cy="18.3" r="4.5" gradientUnits="userSpaceOnUse" gradientTransform="translate(-3.2,15.2)"><stop stop-color="#11394b" stop-opacity="1" offset="0"/><stop stop-color="#1b5e73" stop-opacity="0" offset="1"/></radialGradient>
  <radialGradient id="rg22" cx="113.9" cy="18.3" r="4.5" gradientUnits="userSpaceOnUse" gradientTransform="matrix(1.06,0,0,1,-30.2,30.4)"><stop stop-color="#11394b" stop-opacity="1" offset="0"/><stop stop-color="#1b5e73" stop-opacity="0" offset="1"/></radialGradient>
  <radialGradient id="rg23" cx="113.9" cy="18.3" r="4.5" gradientUnits="userSpaceOnUse" gradientTransform="translate(10.1,18.8)"><stop stop-color="#11394b" stop-opacity="1" offset="0"/><stop stop-color="#1b5e73" stop-opacity="0" offset="1"/></radialGradient>
  <radialGradient id="rg24" cx="113.9" cy="18.3" r="4.5" gradientUnits="userSpaceOnUse" gradientTransform="matrix(0.66,0,0,0.57,-9.5,65.1)"><stop stop-color="#11394b" stop-opacity="1" offset="0"/><stop stop-color="#1b5e73" stop-opacity="0" offset="1"/></radialGradient>
</defs>

<!-- Head / body shape -->
<g fill="#11394b">
  <path d="m 131.2,37.6 c -0.5,1.3 14.8,3.7 23.8,28.4 2.7,25.1 -7.2,30.5 -10.9,36.2 -3.5,3 -2.4,1.7 4.9,4 6.2,3 11.4,7.8 15.7,13.4 5.2,-0.4 3.3,-14.7 9.1,-16.9 2,-1.7 6.4,-4.2 13.7,-4.8 2.9,-0.1 12.8,-1.2 5,1.1 -5.8,1.7 -21.2,5.1 -20.1,11.9 0.5,3.2 13.7,-6.8 13.3,-0.2 -13.4,2.1 4.7,5.9 6.5,0.8 2.5,-7.4 2.5,3.8 4.1,6.4 3.5,15.7 0.1,24.1 -0.3,33.7 0.3,4.6 9.4,11.9 14.2,2.5 1.2,-5.5 10.5,-1.2 17,-3.1 7.2,-5.2 -0.9,-13.6 -3,-19.6 -3.3,-7.4 -9.4,-14 -13.3,-20.9 -1.8,-6.6 4,-13.2 5,-19.5 -9.7,-9.2 -25.2,-9.3 -36.5,-3.3 -3.5,1.2 -10.1,4.9 -12.4,2.2 2.8,-5.3 9.1,-7.8 14.7,-8.5 4,-0.8 11.5,-3.7 4.9,-6 -8,-4.9 -14.6,-12.9 -15.6,-22.7 -0.6,-5.1 -0.9,-10.9 2.1,-15.1 0.8,-5.8 -37.1,-25 -32.5,-16.6 0.9,13.4 -10,15.1 -9.3,16.7 z"/>
  <path d="M 102,75 C 65.8,76.9 64,116.6 86.1,133.4 100.3,145.2 102.9,129.6 93.9,124 67.6,104.8 85.6,82.2 104,86 124.8,89.5 114.7,57.6 102,75 Z"/>
  <path d="m 124.8,108.6 c -6.2,-0.5 -10.5,-6.3 -8.6,-1.8 -1,5.1 -2.7,5.8 -3.1,6.5 53.5,33.7 -15.4,58.6 -17.5,58.1 -0.9,11.8 20.9,7.7 19.3,21.9 -2.1,3.2 -3.9,6.4 -5.1,9.7 -0.9,1 -1.5,2.2 -1.2,3.8 -1.1,4.2 -1.3,8.6 -0.6,13.5 1,2.7 -1.7,13.9 0.9,16.3 0.4,0.3 1,0.5 1.7,0.3 11.2,-6.4 20.7,-15.5 32.4,-21 15.2,-8.3 32.2,-0.8 48.3,-1.8 14,-1.1 16.6,-16.4 15.2,-27.4 13.6,-10.3 -17.6,-9 -9.3,0.4 10.7,2 6.2,21.4 -4.6,13.3 -7.3,-4.9 -14.8,-10.8 -19.9,-18.1 -1.9,-4 -3.3,-8.9 -4,-13.6 -0.2,-4 -0.1,-8.1 0,-12.2 0.4,-9.9 2.7,-14.1 -1.1,-24.4 -4.5,-12.1 -14.1,-18.7 -26.3,-22.3 -4.6,0.3 -16.5,-1.2 -16.5,-1.2 z"/>
  <path d="m 126,127 c 9.6,24.7 -14,34.7 -30.5,42.6 -0.2,-10.9 -7.4,-3.1 -9,-14.4 0,-6.3 1.5,-6.8 1.5,-6.8 13.5,-3.9 20.6,-10.6 10.1,-26.7 0,0 10.6,-0.3 13.8,-6.5 11.1,7.8 15.3,14.7 14,11.8 z"/>
  <path d="M 175,40 C 195,52.5 204.2,79.8 204.2,79.8 183.5,71 173.1,63.8 175,40 Z"/>
  <path d="m 169,169.9 c 0,4.4 0.4,8.8 3.7,12.2 2.6,6.4 8.7,10.2 13.4,15 4,3.4 9.3,6.9 14.7,5.6 6.4,-4.4 3.4,-14.9 -3.8,-16.5 -2.9,-7 7.9,-4.7 11.8,-5.1 -1,4 -5.6,8 -2.9,13.1 0.9,7.8 -3.3,16.7 -11.5,18.7 -9.3,2.7 -18.8,-0.8 -28.1,-1.3 -13.2,-2.2 -25.9,3.9 -36.3,11.4 -7,4.3 -12.9,10.4 -20.5,13.8 6.6,-1.2 12.1,-7.7 18,-11.2 9.7,-6.9 20.7,-14.1 33.2,-13.4 11.4,-0.1 22.8,3.8 34.2,1.5 9.8,-2.9 12.5,-14.5 11.9,-23.5 -2.2,-3.9 7.4,-7.8 0.6,-10.1 -4.4,-1.6 -15,1.2 -10.2,7.2 7.6,0.8 8.4,14 0.8,15.3 -5.7,-0.6 -9.7,-5.5 -14.2,-8.6 -4.2,-3.5 -8,-7.4 -11.1,-11.9 z"/>
  <path d="m 210.5,167.2 c -5.9,0.2 -17.7,2.1 -22,6.4 -3.4,2.6 4.9,0.7 7.9,1.4 5.3,0.1 13.4,1.5 15.5,-4.9 1.3,-3.5 0.4,-1.9 -1.4,-2.9 z"/>
  <path d="m 150.4,130.6 c -2.1,4.7 0.7,10.9 -1.6,16 -1.4,4 -9.6,12.5 -0.5,8.8 7.8,-4.1 9,-15.9 4.3,-22.7 -0.6,-0.7 -1.1,-1.8 -2.2,-2 z"/>
  <ellipse cx="117.5" cy="74.7" rx="9.97" ry="8.97" stroke="#11394b" stroke-width="15.3"/>
  <path d="m 40.2,100.5 h 38.5" fill="none" stroke="#11394b" stroke-width="3.5"/>
</g>

<!-- White eye highlight -->
<path fill="#ffffff" d="m 148.2,130.5 c -0.6,0 -0.5,0.2 -0.6,0.4 -0.1,0.3 -0.2,0.6 -0.3,1 -0.1,0.9 -0.2,2 -0.2,3.3 0,2.6 0,5.6 -0.4,7.5 -0.5,5.1 -4.9,9.5 -7.1,12.9 l -0.1,0.1 0.2,0.1 c 2,0.5 4.1,0 6,-0.9 1.8,-0.9 3.4,-2.4 4.2,-3.9 3,-4.2 3.8,-11.6 1.5,-16.8 -0.8,-1.4 -1.4,-2.3 -1.9,-2.9 -0.5,-0.6 -0.9,-0.9 -1.3,-0.8 z"/>

<!-- Teal gradient circles (outer neural nodes) -->
<circle fill="url(#rg1)" cx="66.4" cy="165.8" r="4.5"/>
<circle fill="url(#rg2)" cx="59.3" cy="155.4" r="4.5"/>
<circle fill="url(#rg3)" cx="42.7" cy="127.7" r="4.5"/>
<circle fill="url(#rg4)" cx="40.4" cy="113.5" r="4.5"/>
<circle fill="url(#rg5)" cx="39.1" cy="85.9" r="4.5"/>
<circle fill="url(#rg6)" cx="42" cy="73" r="4.5"/>
<circle fill="url(#rg7)" cx="59.9" cy="46.7" r="4.5"/>
<circle fill="url(#rg8)" cx="75.1" cy="32.5" r="4.5"/>
<circle fill="url(#rg9)" cx="93.2" cy="23.9" r="4.5"/>
<circle fill="url(#rg17)" cx="113.7" cy="19.5" r="4.5"/>

<!-- Dark gradient circles -->
<circle fill="url(#rg10)" cx="75.5" cy="45.7" r="4.5"/>
<circle fill="url(#rg11)" cx="88.1" cy="169.7" r="4.5"/>
<circle fill="url(#rg21)" cx="88.1" cy="183.5" r="4.5"/>
<circle fill="url(#rg12)" cx="74.4" cy="132.8" r="4.5"/>
<circle fill="url(#rg19)" cx="72.2" cy="156.7" r="4.5"/>
<circle fill="url(#rg13)" cx="52.7" cy="119" r="4.5"/>
<ellipse fill="url(#rg24)" cx="65.5" cy="75.5" rx="2.96" ry="2.58"/>
<circle fill="url(#rg14)" cx="84.2" cy="60.4" r="4.5"/>
<circle fill="url(#rg15)" cx="68.5" cy="61.8" r="4.5"/>
<circle fill="url(#rg18)" cx="68.4" cy="90.7" r="4.5"/>
<ellipse fill="url(#rg16)" cx="114.1" cy="44.9" rx="5.01" ry="4.63"/>
<ellipse fill="url(#rg22)" cx="90.2" cy="48.7" rx="4.76" ry="4.5"/>
<circle fill="url(#rg20)" cx="110.7" cy="33.5" r="4.5"/>
<circle fill="url(#rg23)" cx="124" cy="37" r="4.5"/>

<!-- Solid dark circles (main inner nodes) -->
<circle fill="#11394b" cx="50.6" cy="139.7" r="6.09"/>
<circle fill="#11394b" cx="64.4" cy="111.5" r="5.5"/>
<circle fill="#11394b" cx="55.9" cy="85.7" r="5.5"/>
<circle fill="#11394b" cx="42.2" cy="100.2" r="6.09"/>
<circle fill="#11394b" cx="50.3" cy="60.5" r="6.09"/>
<circle fill="#11394b" cx="79.2" cy="72.7" r="5.5"/>
<circle fill="#11394b" cx="99.1" cy="37.5" r="5.5"/>
<circle fill="#11394b" cx="101.7" cy="55.2" r="5.5"/>
<circle fill="#11394b" cx="130.5" cy="26.7" r="5.5"/>
<circle fill="#11394b" cx="105" cy="190.9" r="5.5"/>
<circle fill="#11394b" cx="76.4" cy="172.3" r="5.5"/>
<circle fill="#11394b" cx="65.2" cy="141.5" r="5.5"/>
<circle fill="#11394b" cx="78.7" cy="146.8" r="5.5"/>
<ellipse fill="#11394b" cx="98.6" cy="103.7" rx="15" ry="15"/>

<!-- White highlights -->
<circle fill="#fafbfd" cx="115.5" cy="135.8" r="5.5"/>
<circle fill="#ffffff" cx="117.6" cy="74.1" r="5.5"/>
<circle fill="#fafbfd" cx="165.6" cy="66.9" r="5.5"/>
<circle fill="#fafbfd" cx="157.5" cy="42.4" r="5.5"/>
<circle fill="#11394b" cx="183.5" cy="109.8" r="1.5"/>
</svg>
